<?xml version="1.0" encoding="UTF-8" standalone="no"?>
<!DOCTYPE svg PUBLIC "-//W3C//DTD SVG 1.1//EN" "http://www.w3.org/Graphics/SVG/1.1/DTD/svg11.dtd">
<svg width="100%" height="100%" viewBox="0 0 95 95" version="1.1" xmlns="http://www.w3.org/2000/svg" xmlns:xlink="http://www.w3.org/1999/xlink" xml:space="preserve" xmlns:serif="http://www.serif.com/" style="fill-rule:evenodd;clip-rule:evenodd;stroke-linejoin:round;stroke-miterlimit:2;">
    <g transform="matrix(1.11765,0,0,1.21795,-5.58824,-14.6154)">
        <path d="M47.5,27.6C56.447,12 74.342,12 83.29,19.8C92.237,27.6 92.237,43.2 83.29,58.8C77.026,70.5 60.921,82.2 47.5,90C34.079,82.2 17.974,70.5 11.711,58.8C2.763,43.2 2.763,27.6 11.711,19.8C20.658,12 38.553,12 47.5,27.6Z" style="fill:rgb(255,12,255);"/>
    </g>
    <g transform="matrix(0.860201,0,0,1,-15.4966,15)">
        <g transform="matrix(48,0,0,48,28.4403,45.1698)">
            <path d="M0.048,-0.349C0.048,-0.467 0.08,-0.56 0.144,-0.628C0.208,-0.695 0.29,-0.729 0.391,-0.729C0.457,-0.729 0.517,-0.713 0.57,-0.681C0.623,-0.65 0.663,-0.606 0.691,-0.549C0.719,-0.493 0.733,-0.429 0.733,-0.357C0.733,-0.284 0.718,-0.219 0.689,-0.162C0.66,-0.105 0.618,-0.061 0.564,-0.032C0.511,-0.003 0.453,0.012 0.391,0.012C0.323,0.012 0.263,-0.004 0.21,-0.037C0.157,-0.069 0.117,-0.114 0.089,-0.17C0.062,-0.226 0.048,-0.286 0.048,-0.349ZM0.146,-0.347C0.146,-0.261 0.169,-0.193 0.216,-0.143C0.262,-0.094 0.32,-0.069 0.39,-0.069C0.461,-0.069 0.52,-0.094 0.566,-0.144C0.612,-0.194 0.635,-0.265 0.635,-0.357C0.635,-0.416 0.625,-0.467 0.606,-0.51C0.586,-0.553 0.557,-0.587 0.519,-0.611C0.481,-0.635 0.439,-0.647 0.392,-0.647C0.325,-0.647 0.267,-0.624 0.219,-0.578C0.17,-0.532 0.146,-0.455 0.146,-0.347Z" style="fill:rgb(238,238,238);fill-rule:nonzero;"/>
        </g>
        <g transform="matrix(48,0,0,48,65.7762,45.1698)">
            <path d="M0.066,-0L0.066,-0.519L0.145,-0.519L0.145,-0.446C0.161,-0.471 0.182,-0.492 0.209,-0.507C0.236,-0.523 0.267,-0.53 0.302,-0.53C0.34,-0.53 0.372,-0.522 0.396,-0.506C0.421,-0.49 0.438,-0.468 0.448,-0.439C0.489,-0.5 0.543,-0.53 0.608,-0.53C0.66,-0.53 0.699,-0.516 0.727,-0.488C0.755,-0.459 0.769,-0.415 0.769,-0.356L0.769,-0L0.681,-0L0.681,-0.327C0.681,-0.362 0.678,-0.387 0.673,-0.403C0.667,-0.418 0.657,-0.431 0.642,-0.44C0.627,-0.449 0.609,-0.454 0.589,-0.454C0.552,-0.454 0.522,-0.442 0.498,-0.418C0.474,-0.393 0.462,-0.355 0.462,-0.301L0.462,-0L0.374,-0L0.374,-0.337C0.374,-0.376 0.367,-0.405 0.353,-0.425C0.338,-0.444 0.315,-0.454 0.282,-0.454C0.257,-0.454 0.235,-0.448 0.214,-0.435C0.193,-0.422 0.177,-0.403 0.168,-0.377C0.159,-0.352 0.154,-0.316 0.154,-0.269L0.154,-0L0.066,-0Z" style="fill:rgb(238,238,238);fill-rule:nonzero;"/>
        </g>
        <g transform="matrix(48,0,0,48,105.761,45.1698)">
            <path d="M0.066,-0.615L0.066,-0.716L0.154,-0.716L0.154,-0.615L0.066,-0.615ZM0.066,-0L0.066,-0.519L0.154,-0.519L0.154,-0L0.066,-0Z" style="fill:rgb(238,238,238);fill-rule:nonzero;"/>
        </g>
    </g>
</svg>
